<?xml version="1.0"?>

<!DOCTYPE svg PUBLIC '-//W3C//DTD SVG 1.0//EN' 'http://www.w3.org/TR/2001/REC-SVG-20010904/DTD/svg10.dtd'>
<svg fill-opacity="1" xmlns:xlink="http://www.w3.org/1999/xlink" color-rendering="auto" color-interpolation="auto" text-rendering="auto" stroke="black" stroke-linecap="square" stroke-miterlimit="10" shape-rendering="auto" stroke-opacity="1" fill="black" stroke-dasharray="none" font-weight="normal" stroke-width="1" xmlns="http://www.w3.org/2000/svg" font-family="&apos;Dialog&apos;" font-style="normal" stroke-linejoin="miter" font-size="12" stroke-dashoffset="0" image-rendering="auto">
  <!--Unicode Character 'LADY BEETLE' (U+1F41E)-->
  <defs id="genericDefs" />
  <g>
    <g>
      <path d="M275.4844 261.2812 Q275.4844 263.3906 272.5312 267.0469 Q271.9688 267.75 261.9844 272.6719 Q259.0312 275.0625 252.2812 278.2969 Q249.4688 279 243 279 Q234.8438 279 227.25 274.6406 Q227.25 288 225.5625 297.4219 Q224.0156 302.4844 221.0625 312.4688 Q218.9531 320.625 216.9844 328.9219 Q214.1719 339.3281 210.5156 344.1094 Q205.5938 350.7188 162.8438 360.7031 Q155.6719 362.3906 145.125 362.3906 Q143.4375 362.3906 140.0625 361.8281 Q141.3281 364.3594 143.1562 369.5625 Q143.5781 371.25 143.5781 383.9062 Q143.5781 387.2812 139.1484 396.1406 Q134.7188 405 131.9062 407.8125 Q129.0938 410.625 125.5781 410.625 Q118.2656 410.625 115.1719 405.7031 Q111.7969 400.2188 111.7969 395.5781 Q111.7969 391.7812 116.7188 389.3906 Q118.125 388.6875 123.0469 388.5469 Q126.7031 384.0469 126.7031 382.5 Q126.7031 379.9688 123.1875 370.8984 Q119.6719 361.8281 117.9844 359.7188 Q117.2812 358.875 105.0469 353.0391 Q92.8125 347.2031 85.0781 341.4375 Q84.7969 341.1562 76.6406 333 L75.9375 333.9844 Q74.1094 343.8281 61.1719 348.75 Q57.5156 350.1562 57.375 350.1562 Q54 350.1562 50.3438 344.6719 Q48.0938 341.2969 48.0938 337.0781 Q48.0938 333.8438 51.8906 331.5938 Q53.8594 331.1719 57.7969 329.7656 Q61.5938 327.6562 64.125 318.7969 Q59.4844 315.5625 56.8125 310.9219 Q52.0312 302.9062 51.4688 302.2031 Q50.3438 302.3438 48.375 302.3438 Q39.7969 302.3438 26.8594 295.875 Q23.9062 294.3281 18 288.7031 Q11.5312 282.6562 11.5312 280.2656 Q11.5312 274.9219 14.625 271.0547 Q17.7188 267.1875 22.9219 267.1875 Q24.4688 267.1875 29.5312 270 Q31.6406 278.0156 34.1719 279.9844 Q34.4531 280.2656 43.875 284.9062 Q44.0156 282.6562 44.4375 278.1562 Q46.6875 273.7969 49.0781 264.7969 Q40.0781 255.375 40.0781 240.4688 Q40.0781 229.6406 46.9688 220.7812 Q46.9688 219.7969 46.125 218.9531 Q41.7656 219.7969 36 225.9844 Q34.0312 224.7188 25.5938 217.8281 L25.5938 210.5156 Q33.6094 204.0469 33.0469 204.0469 Q34.4531 204.0469 37.1953 205.1016 Q39.9375 206.1562 41.3438 206.1562 Q43.3125 206.1562 45.1406 203.625 Q53.8594 191.25 61.0312 185.625 Q64.8281 183.7969 70.3125 178.4531 Q70.875 177.1875 70.875 175.9219 Q70.875 174.2344 70.0312 171.3516 Q69.1875 168.4688 69.0469 167.3438 Q74.6719 160.5938 76.5 160.5938 Q82.125 160.5938 85.0781 163.8281 Q87.8906 167.4844 90.8438 171.1406 Q88.1719 173.5312 83.9531 180.1406 L84.0938 180.4219 Q87.4688 180.1406 94.5 177.6094 Q100.9688 175.0781 105.0469 175.0781 Q115.3125 175.0781 121.2188 178.0312 Q121.9219 178.4531 125.8594 181.4062 Q129.375 184.2188 129.9375 184.2188 Q130.9219 184.2188 136.2656 182.1094 Q142.1719 179.8594 143.5781 179.5781 Q145.6875 179.4375 149.7656 179.0156 Q148.2188 174.5156 142.3125 167.2031 Q141.4688 166.6406 134.2969 165.375 Q132.0469 157.3594 132.0469 158.2031 Q132.0469 146.6719 144.4219 146.6719 Q147.5156 146.6719 153.9844 153.2812 Q159.8906 159.4688 161.2969 162.9844 Q166.7812 176.9062 166.9219 186.4688 Q171.4219 189.2812 175.9219 192.0234 Q180.4219 194.7656 183.7969 199.8281 Q192.9375 197.2969 194.4844 192.9375 Q194.625 191.5312 195.3281 188.7188 Q195.8906 187.4531 198.4219 185.5547 Q200.9531 183.6562 202.2188 183.6562 Q205.875 183.6562 208.9688 185.4844 Q215.0156 189 215.0156 192.2344 Q215.0156 196.1719 210.7266 202.0078 Q206.4375 207.8438 202.6406 209.8125 Q200.9531 210.375 197.8594 211.7812 Q206.8594 219.7969 216.9844 237.9375 Q219.2344 244.125 224.1562 252.8438 Q227.3906 255.9375 235.6875 257.4844 Q241.3125 257.7656 252.7031 258.6094 Q253.125 256.5 254.25 252.4219 Q256.6406 246.7969 260.2969 246.7969 Q264.5156 246.7969 270.5625 250.3125 Q275.4844 253.125 275.4844 261.2812 ZM113.9062 190.4062 Q108.5625 184.7812 105.0469 184.7812 Q102.2344 184.7812 95.2031 188.1562 Q87.6094 191.6719 87.6094 193.9219 Q87.6094 198.1406 93.5156 198.1406 Q103.6406 198.1406 110.5312 194.2031 Q112.6406 192.9375 113.9062 190.4062 ZM76.9219 191.6719 L76.9219 189.1406 Q75.7969 187.4531 74.5312 187.4531 Q71.2969 187.4531 62.8594 196.0312 Q54.4219 204.6094 54.4219 207.8438 Q54.4219 210.5156 57.0938 210.5156 Q57.6562 210.5156 61.3125 206.1562 Q65.5312 201.0938 65.6719 200.9531 Q71.7188 194.9062 76.9219 191.6719 ZM213.8906 276.0469 Q213.8906 263.25 211.5703 252.7734 Q209.25 242.2969 197.4375 226.125 Q186.1875 211.0781 176.3438 203.7656 Q164.1094 194.7656 152.2969 189.8438 Q147.9375 188.0156 145.125 188.0156 Q138.6562 188.0156 132.75 191.3906 Q128.3906 193.9219 125.2969 199.2656 Q122.625 204.0469 120.0938 208.9688 Q111.5156 223.1719 86.0625 245.6719 Q80.4375 250.5938 75.5156 253.4766 Q70.5938 256.3594 65.6719 258.8906 Q60.3281 261.9844 57.7969 266.7656 Q54.4219 273.2344 54.4219 278.7188 Q54.4219 281.5312 63.9844 298.6875 Q66.375 303.1875 71.8594 311.4844 Q85.6406 328.3594 108.7031 339.6094 Q111.7969 341.5781 118.4062 344.6719 Q126.2812 347.4844 142.1719 347.4844 Q168.4688 347.4844 189.7031 338.0625 Q192.7969 336.7969 198.4219 333.2812 Q206.1562 326.6719 210.5156 306.4219 Q213.8906 290.6719 213.8906 276.0469 ZM64.6875 227.25 Q64.6875 221.2031 60.3281 221.2031 Q58.2188 221.2031 54.9844 227.9531 Q51.75 234.7031 51.75 237.2344 Q51.75 246.7969 57.6562 246.7969 Q60.0469 246.7969 62.5781 238.2188 Q64.6875 230.9062 64.6875 227.25 ZM193.0781 247.3594 Q193.0781 256.2188 187.9453 261.8438 Q182.8125 267.4688 174.0938 267.4688 Q167.625 267.4688 159.75 254.1094 Q152.4375 241.7344 152.4375 234.5625 Q152.4375 231.4688 153.1406 229.7812 Q153.7031 228.5156 157.9219 224.5078 Q162.1406 220.5 163.8984 219.6562 Q165.6562 218.8125 171.2812 218.8125 Q175.5 218.8125 178.4531 219.7969 Q185.2031 222.0469 189.4219 231.3281 Q193.0781 239.2031 193.0781 247.3594 ZM197.8594 306 Q197.8594 317.25 196.5938 319.3594 Q192.0938 324.1406 187.5938 328.7812 L173.6719 328.7812 Q173.1094 328.7812 169.7344 326.8125 Q151.875 316.2656 151.875 299.5312 Q151.875 297.7031 154.1953 293.3438 Q156.5156 288.9844 158.0625 287.7188 Q163.2656 283.2188 167.9062 283.2188 Q175.9219 283.2188 186.4688 290.6719 Q197.8594 298.5469 197.8594 306 ZM136.8281 241.4531 Q136.8281 248.0625 126.2812 258.9609 Q115.7344 269.8594 109.125 269.8594 Q103.2188 269.8594 99.1406 264.7969 Q95.2031 260.1562 95.2031 254.1094 Q95.2031 245.3906 103.9219 236.7422 Q112.6406 228.0938 121.3594 228.0938 Q127.2656 228.0938 132.0469 231.8906 Q136.8281 235.6875 136.8281 241.4531 ZM133.1719 306.5625 Q133.1719 312.8906 128.6719 318.5156 Q124.7344 323.4375 113.625 323.4375 Q103.0781 323.4375 95.0625 319.2188 Q84.9375 314.1562 84.9375 304.5938 Q84.9375 295.3125 87.1875 292.5 Q91.2656 288.1406 95.2031 283.7812 Q97.1719 283.5 98.4375 283.5 Q107.7188 283.5 119.8125 290.5312 Q133.1719 298.2656 133.1719 306.5625 Z" stroke="none" />
    </g>
  </g>
</svg>
