<?xml version="1.0"?>

<!DOCTYPE svg PUBLIC '-//W3C//DTD SVG 1.0//EN' 'http://www.w3.org/TR/2001/REC-SVG-20010904/DTD/svg10.dtd'>
<svg fill-opacity="1" xmlns:xlink="http://www.w3.org/1999/xlink" color-rendering="auto" color-interpolation="auto" text-rendering="auto" stroke="black" stroke-linecap="square" stroke-miterlimit="10" shape-rendering="auto" stroke-opacity="1" fill="black" stroke-dasharray="none" font-weight="normal" stroke-width="1" xmlns="http://www.w3.org/2000/svg" font-family="&apos;Dialog&apos;" font-style="normal" stroke-linejoin="miter" font-size="12" stroke-dashoffset="0" image-rendering="auto">
  <!--Unicode Character 'TWELVE POINTED BLACK STAR' (U+2739)-->
  <defs id="genericDefs" />
  <g>
    <g>
      <path d="M71.1562 263.25 Q42.75 222.75 40.0781 218.7422 Q37.4062 214.7344 37.4062 211.9219 Q37.4062 209.3906 39.2344 207.4922 Q41.0625 205.5938 43.7344 205.5938 Q47.3906 205.5938 56.25 211.6406 L95.9062 238.3594 Q103.6406 196.875 105.75 186.3984 Q107.8594 175.9219 114.0469 175.9219 Q117.9844 175.9219 120.2344 180 Q122.4844 184.0781 131.9062 238.3594 Q173.8125 210.2344 177.5391 207.9141 Q181.2656 205.5938 184.3594 205.5938 Q186.75 205.5938 188.7188 207.3516 Q190.6875 209.1094 190.6875 211.6406 Q190.6875 215.2969 184.0781 224.5781 L156.9375 263.25 Q207 273.2344 212.4844 274.5 Q217.9688 275.7656 217.9688 281.1094 Q217.9688 284.0625 216 285.75 Q214.0312 287.4375 196.875 290.8125 L156.9375 298.9688 Q185.3438 338.9062 188.0156 343.0547 Q190.6875 347.2031 190.6875 350.1562 Q190.6875 352.6875 189 354.4453 Q187.3125 356.2031 184.6406 356.2031 Q180.2812 356.2031 171.1406 350.0156 L131.9062 323.7188 Q123.75 369.2812 121.8516 377.5781 Q119.9531 385.875 114.0469 385.875 Q111.2344 385.875 108.9844 383.7656 Q106.7344 381.6562 104.2031 367.875 L95.9062 323.7188 Q55.2656 351.1406 51.2578 353.6719 Q47.25 356.2031 43.7344 356.2031 Q41.3438 356.2031 39.375 354.4453 Q37.4062 352.6875 37.4062 350.1562 Q37.4062 346.5 44.2969 336.9375 L71.1562 298.9688 Q17.0156 288.1406 13.5703 286.7344 Q10.125 285.3281 10.125 280.6875 Q10.125 277.875 11.7422 276.3281 Q13.3594 274.7812 22.5 272.9531 L71.1562 263.25 Z" stroke="none" />
    </g>
  </g>
</svg>
